<?xml version="1.0" encoding="UTF-8"?>
<!DOCTYPE svg PUBLIC "-//W3C//DTD SVG 1.1//EN" "http://www.w3.org/Graphics/SVG/1.1/DTD/svg11.dtd">
<!-- Creator: CorelDRAW 2019 (64-Bit) -->
<svg xmlns="http://www.w3.org/2000/svg" xml:space="preserve" width="6.14173in" height="6.14174in" version="1.1" style="shape-rendering:geometricPrecision; text-rendering:geometricPrecision; image-rendering:optimizeQuality; fill-rule:evenodd; clip-rule:evenodd"
viewBox="0 0 2402.1 2402.1"
 xmlns:xlink="http://www.w3.org/1999/xlink">
 <defs>
  <style type="text/css">
   <![CDATA[
    .fil0 {fill:#141C4F}
    .fil6 {fill:#303F9F}
    .fil1 {fill:#3F51B5}
    .fil3 {fill:#606060}
    .fil2 {fill:#A4AAB0}
    .fil4 {fill:#D1DDF3}
    .fil7 {fill:#DCE4EC}
    .fil5 {fill:#F7F7F8}
   ]]>
  </style>
 </defs>
 <g id="Layer_x0020_1">
  <metadata id="CorelCorpID_0Corel-Layer"/>
  <circle class="fil0" cx="1201" cy="1201" r="1201"/>
  <path class="fil1" d="M1924 2160.1l-796.4 -65.3 73.4 307.2c270.1,0 521,-89.5 723,-241.9z"/>
  <polygon class="fil2" points="324.6,1791.9 434.6,1791.9 434.6,968.3 324.6,968.3 "/>
  <polygon class="fil3" points="1967.4,1791.9 2077.4,1791.9 2077.4,968.3 1967.4,968.3 "/>
  <g id="_1299392826080">
   <path class="fil4" d="M1201 2402l0 -307.2 -723.8 64.6c198.9,150.4 445.7,240 712.3,242.6 3.8,0 7.7,-0 11.5,-0z"/>
   <path class="fil4" d="M2139.7 1654l-938.7 0 -73.4 257.1 73.4 257.1 712.1 0c84.6,-62.4 160.9,-135.6 226.6,-217.9l0 -296.3z"/>
  </g>
  <path class="fil1" d="M488.9 2168.1l712.2 0 0 -514.1 -938.7 0 0 296.2c65.7,82.2 141.9,155.5 226.6,217.9z"/>
  <path class="fil1" d="M1831.7 835.6l73.4 221.3c23.5,40.4 67.3,67.6 117.3,67.6 50,0 93.8,-27.3 117.3,-67.7l0 -147.8 -308.1 -73.4z"/>
  <path class="fil5" d="M1597 835.6l73.4 221.3c23.5,40.4 67.3,67.6 117.3,67.6 50,0 93.8,-27.2 117.3,-67.6l0 -147.9 -308.1 -73.4z"/>
  <polygon class="fil6" points="2139.7,909 2139.7,524.6 1905.1,524.6 1831.7,716.8 1905.1,909 "/>
  <polygon class="fil7" points="1905.1,909 1905.1,524.6 1670.4,524.6 1597,716.8 1670.4,909 "/>
  <path class="fil1" d="M1362.3 835.6l73.4 221.3c23.5,40.4 67.3,67.6 117.3,67.6 50,0 93.8,-27.2 117.3,-67.6l0 -147.9 -308.1 -73.4z"/>
  <polygon class="fil6" points="1670.4,909 1670.4,524.6 1435.7,524.6 1362.3,716.8 1435.7,909 "/>
  <path class="fil5" d="M1127.6 835.6l73.4 221.3c23.5,40.4 67.3,67.6 117.3,67.6 50,0 93.8,-27.2 117.3,-67.6l0 -147.9 -308.1 -73.4z"/>
  <path class="fil1" d="M892.9 835.6l73.4 221.3c23.5,40.4 67.3,67.6 117.3,67.6 50,0 93.8,-27.2 117.3,-67.6l0 -147.9 -308.1 -73.4z"/>
  <polygon class="fil7" points="1435.7,909 1435.7,524.6 1201,524.6 1127.6,716.8 1201,909 "/>
  <polygon class="fil6" points="1201,909 1201,524.6 966.3,524.6 892.9,716.8 966.3,909 "/>
  <path class="fil5" d="M658.3 835.6l73.4 221.3c23.5,40.4 67.3,67.6 117.3,67.6 50,0 93.8,-27.2 117.3,-67.6l0 -147.9 -308.1 -73.4z"/>
  <polygon class="fil7" points="966.3,909 966.3,524.6 731.7,524.6 658.3,716.8 731.7,909 "/>
  <path class="fil1" d="M423.6 835.6l73.4 221.3c23.5,40.4 67.3,67.6 117.3,67.6 50,0 93.8,-27.2 117.3,-67.6l0 -147.9 -308.1 -73.4z"/>
  <polygon class="fil6" points="731.7,909 731.7,524.6 497,524.6 423.6,716.8 497,909 "/>
  <path class="fil5" d="M262.3 909l0 147.8c23.5,40.4 67.3,67.7 117.3,67.7 50,0 93.8,-27.2 117.3,-67.6l0 -147.9 -117.3 -73.4 -117.3 73.4z"/>
  <polygon class="fil7" points="262.3,909 497,909 497,524.6 262.3,524.6 "/>
 </g>
</svg>
