<?xml version="1.0" encoding="UTF-8"?>
<!DOCTYPE svg PUBLIC "-//W3C//DTD SVG 1.1//EN" "http://www.w3.org/Graphics/SVG/1.1/DTD/svg11.dtd">
<!-- Creator: CorelDRAW 2019 (64-Bit) -->
<svg xmlns="http://www.w3.org/2000/svg" xml:space="preserve" width="5.12224in" height="1.17483in" version="1.1" style="shape-rendering:geometricPrecision; text-rendering:geometricPrecision; image-rendering:optimizeQuality; fill-rule:evenodd; clip-rule:evenodd"
viewBox="0 0 1866.9 428.2"
 xmlns:xlink="http://www.w3.org/1999/xlink">
 <defs>
  <style type="text/css">
   <![CDATA[
    .fil0 {fill:#C9F0FF}
    .fil1 {fill:#349CC9;fill-rule:nonzero;fill-opacity:0.301961}
   ]]>
  </style>
 </defs>
 <g id="Layer_x0020_1">
  <metadata id="CorelCorpID_0Corel-Layer"/>
  <rect class="fil0" x="-0" y="-0" width="1866.6" height="427.9"/>
  <path class="fil1" d="M1866.9 428.2l0 -60.1 -2.4 0 0 -38.5 -4.3 0 0 -9.8 -10.8 0 0 -24.7 -7.1 0 0 -16.2 3.8 0 0 -3.6 -25.7 0 0 -24.3 -7.6 0 0 -9.7 2.5 0 0 -15.9 -5.2 -3.8 -6.5 4 0 15.9 2.9 0 0 9.5 -6.7 0 0 -16.8 -18.4 0 0 16.8 -4.6 0 0 94.1 -26 0 0 33.6 -6.8 0 0 8.2 -13.2 0 0 -35.5 -3.3 0 0 -7.5 -11.3 0 0 7.3 -4.8 0 0 -3.8 -2.2 0 0 -4.6 -4.9 -2.9 -4.4 2.2 -3.8 -2.2 -4.1 1.7 0 9.8 -2.1 0 0 35.9 -2.7 0 0 -18.6 -3.5 0 0 -39.3 -4.1 0 0 -8.6 -15.2 0 0 8.7 -15.5 0 0 60.9 -7.1 0 0 -22.2 -2.9 0 0 -38.9 -5.1 0 0 -8.4 -4.6 0 0 -5.9 -4 -2.1 -4.9 2.2 0 4.4 -5.2 0 0 9.7 -9.2 0 0 2.2 -3.8 0 0 19.7 -3.3 0 0 -101.8 -5.4 0 0 -4.3 -12.4 0 0 -11.1 -7 0 0 -6.8 -5.7 -3 -5.7 2.9 0 4.1 -5.6 0 0 14.9 -6.2 0 0 62.8 -12.2 0 0 10.2 -9.7 0 0 -12.2 -22.5 13.5 -5.4 0 0 35.5 -11.6 0 0 3.6 -6.3 0 0 7.8 -4.3 0 0 -7.3 -14 0 0 26.8 -3.3 0 0 -35.2 -2.4 0 0 -22.1 -2.7 0 0 -15.9 -4.4 -5.9 0 -10.6 -4.1 -2.1 -4.6 2.5 0 10.2 -3.2 6 0 -10.5 -16 0 0 10.3 -2.2 0 0 37.6 -2.5 0 0 16.7 -3.3 0 0 -16.7 -1.7 0 0 -21.9 -4.3 0 0 -8.1 -15.7 0 0 8.1 -15.5 -0.2 0 10.9 -2.7 1.7 0 9.4 -7.9 0 0 -77.7 -3.8 0 0 -13.5 -15.1 0 0 13.3 -15.7 0 0 79.3 -5.2 0 0 -55.4 1.4 0 0 -3.6 -5.7 0 0 -11.9 -6.2 0 0 -7.3 -6.3 -2.9 -5.7 2.7 0 7.5 -7.9 0 0 12.4 -12.2 0 0 3.3 -5.7 0 0 61.7 -3.5 0 0 -30 -6.2 0 0 -5.4 2.4 0 0 -8.7 -4.3 -2.4 -4.8 2.4 0 8.7 2.4 0 0 5.6 -5.7 0 0 -10.3 -6.2 0 0 -43.6 -16.5 0 0 -14 -15.7 0 0 14 -2.7 0 0 11.6 -10.6 0 0 12.5 -2.7 0 0 -61.9 -10.3 0 0 -15.7 -6.3 -6.2 -6 6.2 0 15.9 -9.7 0 0 4.1 -4.6 0 0 144.8 -22.8 0 0 -35.2 -3.3 0 0 -62.3 -4.4 0 0 -3.2 -9.2 0 0 -13.2 -5.4 0 0 -7.2 -4.1 -3 -4.3 3 0 9 -4.8 0 0 11.7 -6.5 0 0 106.3 -4 0 0 -38.7 1 0 0 -2.7 -3.8 0 0 -7.3 -11.9 0 0 7.3 -6.7 0 0 -7.7c0,0 -0.6,-3.7 -4.7,-3.7 -4.1,0 -4.6,2.5 -4.6,2.5 0,0 -0.8,-2.3 -5,-2.3 -3.6,0 -4,3.6 -4,3.6l0 7.9 -2.7 0 0 2.2 1.4 0 0 56 -4.8 0 0 -56 1.4 0 0 -2.2 -3.6 0 0 -7.8 -11.6 0 0 6.8 -7.1 0 0 -7.9c0,0 -0.8,-2.5 -4.4,-2.5 -3.3,0 -4.4,2.5 -4.4,2.5 0,0 -0.6,-2.6 -4.4,-2.6 -2.9,0 -4.2,2.5 -4.2,2.5l0 8.9 -1.9 0 0 35.7 -3.3 0 0 -106.8 1.3 0 0 -3.3 -5.2 0 0 -12.4 -18.2 0 0 12.2 -18.4 0 0 110.3 -7.9 0 0 -55.2 1.3 0 0 -2.5 -4.4 0 0 -9.2 -13.8 0 0 9.2 -6 0 0 -5.2 1.6 0 0 -8.9 -4.1 -2.5 -3.2 1.8 0 -64.5 -16.3 0 0 15.6 -15.3 0 0 95.9 -4.8 0 0 -75.5 -7.1 0 0 -12.9 -26.9 0 0 17 -21.4 0 0 34.7 -20.1 0 0 -10.2 -6.5 0 0 -47.9 -5.3 0 0 -22.9 -3.9 -3.9 -3.7 3.7 0 24.1 -5.1 0 0 -15 -16.3 0 0 15.6 -3.7 0 0 24.1 -13.9 0 0 -65.8 -5.4 0 0 -18.5 -4.9 0 0 -10 -4.9 -4.9 -4.1 4.1 0 10.9 -5.4 0 0 18.5 -9.9 0 0 4.9 -4.8 0 0 160.1 -27.5 0 0 -112.9 -15 0 0 -14.6 -6.6 0 0 -7.3 -4.2 -4.2 -4.1 4.1 0 9.5 -5.4 0 0 12.6 -4.1 0 0 69.3 -10.5 0 0 -8.2 -12.9 0 0 7.8 -27.2 0 0 67.6 -6.5 0 0 -62.9 2 0 0 -4.4 -3.1 0 0 -8.8 -12.6 0 0 9.2 -28.2 0 0 48.3 -4.4 0 0 -123.7 2.4 0 0 -4.8 -4.8 0 0 -14.3 -19 0 0 14.3 -8.5 0 0 -8.2 2.7 0 0 -14.3 -5.8 -4.1 -6.1 4.1 0 14.3 2.7 0 0 8.5 -6.5 0 0 116.6 -7.1 0 0 -60.8 -3.4 0 0 -9.5 -16.7 0 0 -5.8 -4.8 -3.7 -5.1 3.7 0 15 -7.5 0 0 -14.6 -30.6 0 0 14.3 -28.9 0 0 16.3 -13.6 0 0 8.2 -5.1 0 0 -11.6 -23.1 0 0 28.9 -6.5 0 0 -85.7 -5.1 -4.4 -4.1 4.1 0 7.1 -3.7 -3.4 -5.8 3.4 0 6.5 -7.8 0 0 8.5 -10.5 0 0 5.4 -5.8 0 0 50.3 -24.8 0 0 20.1 -9.2 0 0 8.8 -16 0 0 26.9 -11.2 0 0 -27.2 -8.8 0 0 -10.2 -18 0 0 8.2 -10.5 0 0 6.5 -11.9 0 0 -80.6 -21.1 0 0 8.2 -8.8 0 0 11.2 -5.4 0 0 -11.9 -7.1 0 0 -28.6 -4.3 0 0 -19.9 -3.9 -3.9 -3.1 3.1 0 20.7 -6.1 0 0 -12.9 -16.3 0 0 13.3 -4.1 0 0 96.5 -4.4 0 0 -138.3 -4.4 0 0 -27.5 -11.6 0 0 27.5 -5.4 0 0 96.5 -3.7 0 0 -27.2 -22.8 0 0 32 -6.5 0 0 -14.6 -12.9 0 0 5.4 -5.8 0 0 7.8 -3.4 0 0 -8.8 -13.9 0 0 10.5 -3.1 0 0 37.1 -6.1 0 0 -61.2 -5.1 0 0 -10.9 -8.5 0 0 -27.9 -6.5 0 0 -15.6 -0.6 0 0 157.6c218,-0.1 861.8,0.1 927.8,0.1l0 0.1 939 0 0.2 0.2z"/>
 </g>
</svg>
