<?xml version="1.0" encoding="UTF-8"?>
<!DOCTYPE svg PUBLIC "-//W3C//DTD SVG 1.1//EN" "http://www.w3.org/Graphics/SVG/1.1/DTD/svg11.dtd">
<!-- Creator: CorelDRAW 2019 (64-Bit) -->
<svg xmlns="http://www.w3.org/2000/svg" xml:space="preserve" width="5.12224in" height="1.17483in" version="1.1" style="shape-rendering:geometricPrecision; text-rendering:geometricPrecision; image-rendering:optimizeQuality; fill-rule:evenodd; clip-rule:evenodd"
viewBox="0 0 1943.8 445.8"
 xmlns:xlink="http://www.w3.org/1999/xlink">
 <defs>
  <style type="text/css">
   <![CDATA[
    .fil0 {fill:#222445}
    .fil1 {fill:#1D1D1B;fill-rule:nonzero}
   ]]>
  </style>
 </defs>
 <g id="Layer_x0020_1">
  <metadata id="CorelCorpID_0Corel-Layer"/>
  <rect class="fil0" x="-0" y="-0" width="1943.5" height="445.6"/>
  <path class="fil1" d="M1943.8 445.8l0 -62.6 -2.5 0 0 -40.1 -4.5 0 0 -10.2 -11.2 0 0 -25.8 -7.4 0 0 -16.8 4 0 0 -3.8 -26.8 0 0 -25.3 -7.9 0 0 -10.1 2.6 0 0 -16.5 -5.5 -4 -6.8 4.1 0 16.5 3 0 0 9.9 -6.9 0 0 -17.5 -19.2 0 0 17.5 -4.8 0 0 97.9 -27.1 0 0 35 -7.1 0 0 8.6 -13.7 0 0 -37 -3.5 0 0 -7.8 -11.7 0 0 7.6 -5 0 0 -4 -2.3 0 0 -4.8 -5.1 -3 -4.6 2.3 -4 -2.3 -4.3 1.8 0 10.2 -2.1 0 0 37.3 -2.8 0 0 -19.3 -3.6 0 0 -41 -4.3 0 0 -8.9 -15.9 0 0 9.1 -16.2 0 0 63.4 -7.4 0 0 -23.1 -3 0 0 -40.5 -5.3 0 0 -8.8 -4.8 0 0 -6.1 -4.1 -2.1 -5.1 2.3 0 4.6 -5.5 0 0 10.1 -9.6 0 0 2.3 -4 0 0 20.5 -3.5 0 0 -106 -5.6 0 0 -4.5 -12.9 0 0 -11.6 -7.3 0 0 -7.1 -5.9 -3.1 -5.9 3 0 4.3 -5.8 0 0 15.5 -6.4 0 0 65.4 -12.7 0 0 10.6 -10.1 0 0 -12.7 -23.5 14 -5.6 0 0 37 -12.1 0 0 3.8 -6.6 0 0 8.1 -4.5 0 0 -7.6 -14.5 0 0 27.9 -3.5 0 0 -36.7 -2.5 0 0 -23 -2.8 0 0 -16.5 -4.6 -6.1 0 -11.1 -4.3 -2.1 -4.8 2.6 0 10.6 -3.3 6.3 0 -10.9 -16.7 0 0 10.7 -2.3 0 0 39.1 -2.6 0 0 17.3 -3.5 0 0 -17.3 -1.8 0 0 -22.8 -4.5 0 0 -8.4 -16.4 0 0 8.4 -16.2 -0.2 0 11.4 -2.8 1.8 0 9.7 -8.3 0 0 -80.9 -4 0 0 -14 -15.7 0 0 13.9 -16.4 0 0 82.6 -5.5 0 0 -57.6 1.5 0 0 -3.8 -5.9 0 0 -12.4 -6.4 0 0 -7.6 -6.6 -3 -5.9 2.8 0 7.8 -8.3 0 0 12.9 -12.7 0 0 3.5 -5.9 0 0 64.3 -3.6 0 0 -31.2 -6.4 0 0 -5.6 2.5 0 0 -9.1 -4.5 -2.5 -5 2.5 0 9.1 2.5 0 0 5.8 -5.9 0 0 -10.7 -6.4 0 0 -45.4 -17.2 0 0 -14.5 -16.4 0 0 14.5 -2.8 0 0 12.1 -11.1 0 0 13 -2.8 0 0 -64.4 -10.7 0 0 -16.4 -6.6 -6.4 -6.3 6.4 0 16.5 -10.1 0 0 4.3 -4.8 0 0 150.8 -23.8 0 0 -36.7 -3.5 0 0 -64.9 -4.6 0 0 -3.3 -9.6 0 0 -13.7 -5.6 0 0 -7.5 -4.3 -3.1 -4.5 3.1 0 9.3 -5 0 0 12.2 -6.8 0 0 110.7 -4.1 0 0 -40.3 1 0 0 -2.8 -4 0 0 -7.6 -12.4 0 0 7.6 -6.9 0 0 -8c0,0 -0.6,-3.9 -4.9,-3.9 -4.3,0 -4.8,2.6 -4.8,2.6 0,0 -0.8,-2.4 -5.2,-2.4 -3.8,0 -4.1,3.7 -4.1,3.7l0 8.2 -2.8 0 0 2.3 1.5 0 0 58.3 -5 0 0 -58.3 1.5 0 0 -2.3 -3.8 0 0 -8.1 -12.1 0 0 7.1 -7.4 0 0 -8.3c0,0 -0.8,-2.6 -4.6,-2.6 -3.4,0 -4.6,2.6 -4.6,2.6 0,0 -0.7,-2.7 -4.5,-2.7 -3,0 -4.4,2.6 -4.4,2.6l0 9.3 -2 0 0 37.2 -3.5 0 0 -111.2 1.3 0 0 -3.5 -5.5 0 0 -12.9 -19 0 0 12.7 -19.2 0 0 114.8 -8.3 0 0 -57.5 1.3 0 0 -2.6 -4.6 0 0 -9.6 -14.4 0 0 9.6 -6.3 0 0 -5.5 1.7 0 0 -9.2 -4.3 -2.6 -3.3 1.9 0 -67.2 -17 0 0 16.3 -15.9 0 0 99.8 -5 0 0 -78.6 -7.4 0 0 -13.4 -28 0 0 17.7 -22.3 0 0 36.1 -20.9 0 0 -10.6 -6.7 0 0 -49.9 -5.5 0 0 -23.9 -4.1 -4.1 -3.9 3.9 0 25.1 -5.3 0 0 -15.6 -17 0 0 16.3 -3.9 0 0 25.1 -14.5 0 0 -68.5 -5.7 0 0 -19.3 -5.1 0 0 -10.4 -5.1 -5.1 -4.2 4.2 0 11.3 -5.7 0 0 19.3 -10.3 0 0 5.1 -5 0 0 166.7 -28.7 0 0 -117.5 -15.6 0 0 -15.2 -6.9 0 0 -7.6 -4.4 -4.4 -4.2 4.2 0 9.9 -5.7 0 0 13.1 -4.2 0 0 72.2 -11 0 0 -8.5 -13.4 0 0 8.1 -28.3 0 0 70.4 -6.7 0 0 -65.5 2.1 0 0 -4.6 -3.2 0 0 -9.2 -13.1 0 0 9.6 -29.4 0 0 50.3 -4.6 0 0 -128.8 2.5 0 0 -5 -5 0 0 -14.9 -19.8 0 0 14.9 -8.8 0 0 -8.5 2.8 0 0 -14.9 -6 -4.2 -6.4 4.2 0 14.9 2.8 0 0 8.8 -6.7 0 0 121.4 -7.4 0 0 -63.4 -3.5 0 0 -9.9 -17.3 0 0 -6 -5 -3.9 -5.3 3.9 0 15.6 -7.8 0 0 -15.2 -31.9 0 0 14.9 -30.1 0 0 17 -14.2 0 0 8.5 -5.3 0 0 -12 -24.1 0 0 30.1 -6.7 0 0 -89.2 -5.3 -4.6 -4.2 4.2 0 7.4 -3.9 -3.5 -6 3.5 0 6.7 -8.1 0 0 8.8 -11 0 0 5.7 -6 0 0 52.4 -25.8 0 0 20.9 -9.6 0 0 9.2 -16.6 0 0 28 -11.7 0 0 -28.3 -9.2 0 0 -10.6 -18.8 0 0 8.5 -11 0 0 6.7 -12.4 0 0 -83.9 -21.9 0 0 8.5 -9.2 0 0 11.7 -5.7 0 0 -12.4 -7.4 0 0 -29.7 -4.4 0 0 -20.7 -4.1 -4.1 -3.2 3.2 0 21.6 -6.4 0 0 -13.4 -17 0 0 13.8 -4.2 0 0 100.5 -4.6 0 0 -144 -4.6 0 0 -28.7 -12 0 0 28.7 -5.7 0 0 100.5 -3.9 0 0 -28.3 -23.7 0 0 33.3 -6.7 0 0 -15.2 -13.4 0 0 5.7 -6 0 0 8.1 -3.5 0 0 -9.2 -14.5 0 0 11 -3.2 0 0 38.6 -6.4 0 0 -63.7 -5.3 0 0 -11.3 -8.8 0 0 -29 -6.7 0 0 -16.3 -0.6 0 0 164.1c227,-0.1 897.3,0.1 966,0.1l0 0.1 977.6 0 0.2 0.2z"/>
 </g>
</svg>
