<?xml version="1.0" encoding="UTF-8"?>
<!DOCTYPE svg PUBLIC "-//W3C//DTD SVG 1.1//EN" "http://www.w3.org/Graphics/SVG/1.1/DTD/svg11.dtd">
<!-- Creator: CorelDRAW 2019 (64-Bit) -->
<svg xmlns="http://www.w3.org/2000/svg" xml:space="preserve" width="14.5083in" height="4.05556in" version="1.1" style="shape-rendering:geometricPrecision; text-rendering:geometricPrecision; image-rendering:optimizeQuality; fill-rule:evenodd; clip-rule:evenodd"
viewBox="0 0 37109.4 10373.3"
 xmlns:xlink="http://www.w3.org/1999/xlink">
 <defs>
  <style type="text/css">
   <![CDATA[
    .fil0 {fill:none}
    .fil2 {fill:#303F9F}
    .fil1 {fill:#3F51B5;fill-rule:nonzero}
   ]]>
  </style>
 </defs>
 <g id="Layer_x0020_1">
  <metadata id="CorelCorpID_0Corel-Layer"/>
  <rect class="fil0" x="19.2" y="-0" width="37090.2" height="10373.3"/>
  <path class="fil1" d="M13245.5 6824.1c1079.3,0 1981.4,-563.8 1981.4,-1691.5 0,-1240.4 -1095.4,-1530.4 -1900.9,-1812.3 -467.2,-169.1 -797.4,-330.2 -797.4,-668.5 0,-233.6 185.3,-435 588,-435 370.5,0 579.9,136.9 644.4,435 24.2,128.9 88.6,193.3 209.4,193.3l886 0c128.9,0 209.4,-72.5 201.4,-209.4 -96.7,-1167.9 -998.8,-1675.4 -1941.2,-1675.4 -958.5,0 -1876.7,563.8 -1876.7,1691.5 0,1232.4 1006.8,1562.6 1804.2,1836.5 491.3,169.1 894.1,314.1 894.1,644.4 0,233.6 -169.1,434.9 -692.7,434.9 -475.2,0 -716.9,-145 -781.3,-434.9 -24.2,-128.9 -88.6,-193.3 -209.4,-193.3l-886 0c-128.9,0 -209.4,72.5 -201.4,209.4 96.7,1167.9 1022.9,1675.4 2078.1,1675.4z"/>
  <path id="1" class="fil1" d="M21308.2 1073.1l-426.9 0 -652.4 0c-112.8,0 -193.3,48.3 -233.6,153l-1304.9 3101.1 -1304.9 -3101.1c-40.3,-104.7 -120.8,-153 -233.6,-153l-193.3 0 -886 0c-128.9,0 -201.4,72.5 -201.4,201.4l0 5235.5c0,128.9 72.5,201.4 201.4,201.4l886 0c128.9,0 201.4,-72.5 201.4,-201.4l0 -3255.4 1022.9 2425.8c40.3,104.7 120.8,153 233.6,153l547.7 0c112.8,0 193.3,-48.3 233.6,-153l1022.9 -2425.8 0 3255.4c0,128.9 72.5,201.4 201.4,201.4l886 0c128.9,0 201.4,-72.5 201.4,-201.4l0 -5235.5c0,-128.9 -72.5,-201.4 -201.4,-201.4z"/>
  <path id="2" class="fil1" d="M27236.4 6485.8l-1707.6 -5243.6c-32.2,-112.8 -120.8,-169.1 -233.6,-169.1l-1288.7 0c-112.8,0 -201.4,56.4 -233.6,169.1l-1707.6 5243.6c-48.3,145 24.2,225.5 169.1,225.5l990.7 0c112.8,0 193.3,-48.3 225.5,-169.1l212.1 -716.9 1976.1 0 212.1 716.9c32.2,120.8 112.8,169.1 225.5,169.1l990.7 0c145,0 217.5,-80.6 169.1,-225.5zm-3216.5 -1868.7l630.9 -2134.5 630.9 2134.5 -1261.9 0z"/>
  <path id="3" class="fil1" d="M32351.1 6461.6l-1448.5 -1840.5c596,-322.2 997.4,-938.4 997.4,-1615 0,-1071.3 -861.8,-1933.1 -1933.1,-1933.1l-886 0 -1087.4 0c-128.9,0 -201.4,72.5 -201.4,201.4l0 5235.5c0,128.9 72.5,201.4 201.4,201.4l886 0c128.9,0 201.4,-72.5 201.4,-201.4l0 -1651.2 496.7 0 1372 1731.7c64.4,88.6 145,120.8 249.7,120.8l1031 0c169.1,0 225.5,-120.8 120.8,-249.7l0 0zm-3270.2 -4180.4l886 0c354.4,0 644.4,314.1 644.4,724.9 0,410.8 -290,724.9 -644.4,724.9l-886 0 0 -1449.8z"/>
  <path id="4" class="fil1" d="M35806.6 1073.1l-1087.4 0 -2376.1 0c-128.9,0 -201.4,72.5 -201.4,201.4l0 837.7c0,128.9 72.5,201.4 201.4,201.4l1087.4 0 0 4196.5c0,128.9 72.5,201.4 201.4,201.4l886 0c128.9,0 201.4,-72.5 201.4,-201.4l0 -4196.5 1087.4 0c128.9,0 201.4,-72.5 201.4,-201.4l0 -837.7c0,-128.9 -72.5,-201.4 -201.4,-201.4z"/>
  <path class="fil2" d="M3880.4 30.6l1748.7 965.3c-1378.5,341.6 -2452.2,1422.2 -2785,2802.9 -332.8,1380.7 130.8,2831.8 1202.3,3763.9 1071.5,932.1 2572.8,1190.2 3894.1,669.4l-1111.5 2013.5c-65.7,119.1 -217,162.8 -336.1,97l-6365.2 -3513.6c-119.1,-65.7 -162.8,-217 -97,-336.1l3513.6 -6365.2c65.7,-119.1 217,-162.8 336.1,-97zm2420.8 1336.3l3944.4 2177.3c119.1,65.7 162.8,217 97,336.1l-702.3 1272.3c-1204,2180.9 -2800.2,2356.5 -4934.7,-618.8 -1196.4,-2061.5 -664.5,-3117.2 1595.5,-3166.9z"/>
  <path class="fil1" d="M12101.5 8180c264.4,0 484,67.1 658.9,201.3 174.9,134.2 292.8,316.2 353.9,546l-369.1 0c-50.8,-130.2 -131.7,-233.4 -242.5,-309.6 -110.8,-76.3 -246.6,-114.4 -407.2,-114.4 -128.1,0 -242.5,31.5 -343.2,94.6 -100.7,63 -180,153 -237.9,270 -58,116.9 -86.9,253.7 -86.9,410.3 0,154.6 29,290.3 86.9,407.2 58,116.9 137.3,206.9 237.9,270 100.7,63 215.1,94.6 343.2,94.6 160.7,0 296.4,-38.1 407.2,-114.4 110.8,-76.3 191.7,-178.5 242.5,-306.6l369.1 0c-61,229.8 -179,411.3 -353.9,544.5 -174.9,133.2 -394.5,199.8 -658.9,199.8 -203.4,0 -383.3,-46.3 -539.9,-138.8 -156.6,-92.5 -277.6,-221.7 -363,-387.4 -85.4,-165.7 -128.1,-355.4 -128.1,-568.9 0,-213.5 42.7,-403.2 128.1,-568.9 85.4,-165.7 206.4,-295.4 363,-388.9 156.6,-93.6 336.6,-140.3 539.9,-140.3z"/>
  <path id="1" class="fil1" d="M16723.5 9888.2l-909 0 -164.7 466.7 -372.2 0 793.1 -2120.1 399.6 0 790.1 2120.1 -372.2 0 -164.7 -466.7zm-97.6 -268.4l-356.9 -1006.7 -356.9 1006.7 713.8 0z"/>
  <polygon id="2" class="fil1" points="21238.7,10355 20890.9,10355 19844.6,8765.7 19844.6,10355 19496.9,10355 19496.9,8204.4 19844.6,8204.4 20890.9,9799.8 20890.9,8204.4 21238.7,8204.4 "/>
  <polygon id="3" class="fil1" points="25021.8,8201.3 25021.8,8482 24420.9,8482 24420.9,10355 24070.1,10355 24070.1,8482 23472.2,8482 23472.2,8201.3 "/>
  <polygon id="4" class="fil1" points="27606.1,8482 27606.1,9134.8 28399.2,9134.8 28399.2,9403.2 27606.1,9403.2 27606.1,10071.3 28490.8,10071.3 28490.8,10355 27258.4,10355 27258.4,8201.3 28490.8,8201.3 28490.8,8482 "/>
  <polygon id="5" class="fil1" points="31154.3,8482 31154.3,9134.8 31947.5,9134.8 31947.5,9403.2 31154.3,9403.2 31154.3,10071.3 32039,10071.3 32039,10355 30806.6,10355 30806.6,8201.3 32039,8201.3 32039,8482 "/>
  <polygon id="6" class="fil1" points="36096.6,10355 35748.9,10355 34702.6,8765.7 34702.6,10355 34354.8,10355 34354.8,8204.4 34702.6,8204.4 35748.9,9799.8 35748.9,8204.4 36096.6,8204.4 "/>
 </g>
</svg>
